<svg version="1.1" xmlns="http://www.w3.org/2000/svg"
     width="490" height="490" xml:space="preserve">
	<path d="M380,50h-67.706c-3.465-5.968-9.91-10-17.294-10h-20V10c0-5.523-4.478-10-10-10H125c-5.523,0-10,4.477-10,10v30H95
			c-7.383,0-13.829,4.032-17.294,10H10C4.477,50,0,54.477,0,60v420c0,5.523,4.477,10,10,10h370c5.522,0,10-4.477,10-10V60
			C390,54.477,385.522,50,380,50z M95,60h140V40H135V20h120v30c0,5.523,4.477,10,10,10h30l0.002,35H95V60z M95,115h200
			c7.384,0,13.829-4.032,17.294-10H335v245h-75c-5.523,0-10,4.477-10,10v75H55V105h22.706C81.171,110.968,87.617,115,95,115z
			M320.857,370L270,420.858V370H320.857z M370,470H20V70h55v15H45c-5.523,0-10,4.477-10,10v350c0,5.523,4.477,10,10,10h214.988
			c0.003,0,0.007,0,0.01,0c2.603,0,5.16-1.017,7.073-2.929l85-85c1.912-1.913,2.903-4.47,2.904-7.071H355V95
			c0-5.523-4.478-10-10-10h-30V70h55V470z"/>
    <path d="M95,220 h50c5.523,0,10-4.477,10-10 v-50 c0-5.523-4.477-10-10-10 H95c-5.523,0-10,4.477-10,10v50
				C85,215.523,89.477,220,95,220 "/>
    <path d="M95,310h50c5.523,0,10-4.477,10-10v-50c0-5.523-4.477-10-10-10H95c-5.523,0-10,4.477-10,10v50
				C85,305.523,89.477,310,95,310z M105,260 h30v30h-30V260z"/>
    <path d="M95,400h50 c5.523,0,10-4.477,10-10 v-50c0-5.523-4.477-10-10-10 H95c-5.523,0-10,4.477-10,10v50
				C85,395.523,89.477,400,95,400 z M105,350 h30v30h-30V350z"/>
    <rect x="185" y="160" width="70" height="20"/>
    <rect x="185" y="190" width="120" height="20"/>
    <rect x="185" y="250" width="70" height="20"/>
    <rect x="185" y="280" width="120" height="20"/>
    <rect x="185" y="340" width="25" height="20"/>
    <rect x="185" y="370" width="45" height="20"/>
    <path d="M489.981,80c0-1.426-0.285-2.855-0.901-4.19l-30-65C457.445,7.268,453.9,5,450,5c-3.9,0-7.445,2.268-9.08,5.81l-30,65
				c-0.616,1.335-0.901,2.765-0.901,4.19H410v400c0,5.523,4.478,10,10,10h60c5.522,0,10-4.477,10-10V80H489.981z M450,38.863
				L464.371,70h-28.742L450,38.863z M430,90h10v310h-10V90z  M470,470  h-40 v-15 h25 h-25 v-15 h40  V470z  M470,400h-10V90h10V400z"/>
</svg>
