<svg version="1.1" xmlns="http://www.w3.org/2000/svg"
     width="600" height="600" xml:space="preserve">
	<g fill="DARKBLUE" stroke-width="10">
		<path d="m484.48591,356.74248l0,-7.89517l6.80709,0c5.20781,0 9.42944,-3.94018 9.42944,-8.79982s-4.2221,-8.80025 -9.42944,-8.80025l-32.47308,0c-5.20781,0 -9.42944,3.94018 -9.42944,8.79982s4.2221,8.79982 9.42944,8.79982l6.80709,0l0,7.89517c-54.09673,4.46832 -96.65998,46.9845 -96.65998,98.61031c0,54.59206 47.59175,99.00599 106.08989,99.00599s106.08989,-44.41392 106.08989,-99.00599c-0.00047,-51.62582 -42.56418,-94.14199 -96.66091,-98.60988zm0,179.53863l0,-8.76931c0,-4.86007 -4.2221,-8.79982 -9.42944,-8.79982c-5.20781,0 -9.42944,3.94018 -9.42944,8.79982l0,8.76931c-40.58201,-4.08964 -72.90706,-34.25714 -77.28932,-72.12851l9.39676,0c5.20781,0 9.42944,-3.94018 9.42944,-8.79982s-4.2221,-8.79982 -9.42944,-8.79982l-9.39723,0c4.38226,-37.87224 36.70825,-68.03886 77.28932,-72.12894l0,8.76931c0,4.86007 4.2221,8.79982 9.42944,8.79982c5.20781,0 9.42944,-3.94018 9.42944,-8.79982l0,-8.77018c40.58201,4.08964 72.90706,34.25714 77.28932,72.12894l-9.39676,0c-5.20781,0 -9.42944,3.94018 -9.42944,8.79982s4.2221,8.79982 9.42944,8.79982l9.39769,0c-4.38226,37.87267 -36.70778,68.04017 -77.28979,72.12938z" />
		<path d="m503.65625,416.21684l-27.16627,25.35274c-0.47208,-0.04227 -0.94976,-0.0658 -1.43398,-0.0658c-8.19578,0 -14.83898,6.20048 -14.83898,13.84814c0,7.64853 6.64366,13.84814 14.83898,13.84814s14.83898,-6.20048 14.83898,-13.84814c0,-0.45189 -0.02521,-0.89767 -0.07051,-1.3378l27.1658,-25.35274c3.68278,-3.436 3.68278,-9.00811 0,-12.44498c-3.68044,-3.43643 -9.65124,-3.43643 -13.33402,0.00044z" />
		<path d="m451.84581,107.54722c-10.5,10.5 -27.6,10.5 -38.2,0c-10.5,-10.5 -10.5,-27.6 0,-38.2c10.5,-10.5 27.6,-10.5 38.2,0c10.5,10.6 10.5,27.7 0,38.2zm-40.2,136.1c-14.2,35.9 -44.3,68.9 -71.8,96.4c-31.5,31.5 -42.4,72.4 -45.5,104.3l-217.6,-217.6c31.9,-3.1 72.8,-14 104.3,-45.5c27.5,-27.5 60.5,-57.6 96.4,-71.8c40.7,-16.1 75.2,-8 108.7,25.5c33.5,33.5 41.6,68 25.5,108.7zm-288.9,154.8c-21.4,-21.4 -24.5,-54.4 -9,-79l88.1,88.1c-24.8,15.4 -57.7,12.4 -79.1,-9.1zm356.8,-356.8c-25.9,-25.9 -67.8,-25.9 -93.6,0c-9.2,9.2 -15.1,20.5 -17.8,32.3c-10,-4.7 -20.3,-8 -30.8,-9.9c-23.8,-4.3 -48.8,-1.3 -74.3,8.7c-42.6,16.8 -79.4,50.2 -109.8,80.6c-45,45 -120.8,33.9 -121.5,33.7c-8.4,-1.4 -16.8,2.9 -20.7,10.5c-3.9,7.6 -2.4,16.9 3.6,22.9l70.5,70.5c-30.6,40.5 -27.5,98.5 9.5,135.4c36.9,36.9 94.9,40.1 135.4,9.5l70.5,70.5c6,6 15.3,7.5 22.9,3.6c7.6,-3.9 11.9,-12.2 10.5,-20.7c0,-0.2 -2.9,-19.4 -0.1,-44.1c3.7,-32.6 15.1,-58.7 33.8,-77.4c30.4,-30.4 63.8,-67.2 80.6,-109.8c10.1,-25.5 13,-50.5 8.7,-74.3c-1.9,-10.5 -5.2,-20.8 -9.9,-30.8c11.9,-2.6 23.1,-8.6 32.3,-17.8c26.1,-25.6 26.1,-67.5 0.2,-93.4l0,0z" />
	</g>
</svg>