<svg version="1.1" xmlns="http://www.w3.org/2000/svg" x="0px" y="0px" viewBox="0 0 1000 1000"
     enable-background="new 0 0 1000 1000"
     xml:space="preserve">
	<g>
		<path d="M528,926.6H10V124h136.6l-0.4,9.4c-1.4,35.1,9.6,61.9,33.3,81.8c17.4,14.7,37.2,21.8,60.7,21.8l3.6-0.1c63.6-1.9,83.8-58.3,89.6-105.2l1-8h266.1l-0.1,9.2c-0.7,38.9,12.1,67.3,39.5,86.8c18.8,13.5,40,19.1,62.9,16.9c31.3-3,84.3-28.4,84.3-103.5v-9.1h135.9v405.2l-24.8-15.1c-4.5-2.8-8.9-5.7-13.3-8.6c-9.8-6.5-19.1-12.6-29-17.1c-16.8-7.8-18.9-19.7-18.7-31.3c0.4-24.7,0.4-49.4,0.3-74.4V363h-741v492.2h171.9c65.1,0,130.2,0,195.3-0.3c14.6,0,23.5,5.3,30,17.8c4.6,8.9,10.3,17.3,16.4,26.3c2.9,4.4,5.9,8.8,8.9,13.4L528,926.6z M28.1,908.4h466.3c-6.2-9.1-12-17.8-16.8-27.2c-3.3-6.5-6-8.1-13.7-8.1c-65.2,0.2-130.4,0.3-195.5,0.3h-190V344.9h777.2v37.9c0.1,25.2,0.1,50-0.3,74.9c-0.1,8.8,1.2,11.2,8.1,14.4c11.2,5.1,21.5,11.9,31.4,18.4c3.3,2.2,6.6,4.4,10,6.5V142.2h-99.8c-3.8,71.1-52.4,107.7-100.4,112.5c-27.5,2.5-52.9-4.1-75.3-20.2c-29.8-21.3-45.6-52.5-46.9-92.6h-232c-11,71.3-48.4,111.4-105.9,113.2l-4.1,0.1c-27.5,0-51.9-8.8-72.4-26c-25.6-21.6-39-50.9-39.8-87H28.1V908.4z"
              stroke="black" stroke-width="35"/>
        <path d="M732,993.3c-4.7,0-9.4-0.1-14.1-0.4c-68.6-3.8-131.5-34.1-177.1-85.3c-46.8-52.7-70.1-121.2-65.6-193c8-128.6,124.7-237.3,254.9-237.3c3.6,0,7.3,0.1,11,0.2c71.1,3.3,135.8,33,181.8,83.7c46.6,51.2,70.3,119.2,66.8,191.6C983.3,885.4,867.7,993.3,732,993.3z M730.1,495.4c-120.9,0-229.4,100.9-236.8,220.3c-4.2,67,17.5,130.8,61,179.9c42.3,47.6,100.8,75.8,164.6,79.2c130.7,7.5,246.5-95.5,252.6-222.9c3.3-67.6-18.8-130.9-62-178.5c-42.9-47.1-103-74.7-169.3-77.8C736.8,495.5,733.4,495.4,730.1,495.4z M732.4,931c-52.6,0-101.9-20.6-138.9-58c-36.9-37.2-57.1-86.3-56.7-138.2c0.8-108,88.3-196,195.1-196h1.4c109.1,0.8,194.5,87.6,194.3,197.5C927.3,843.6,839.8,930.8,732.4,931z M731.9,547.9v9.1c-96.9,0-176.2,79.9-177,178c-0.4,47.1,17.9,91.6,51.4,125.4c33.7,33.9,78.3,52.6,125.7,52.6c97.7-0.1,177.1-79.3,177.3-176.5c0.1-99.8-77.3-178.6-176.3-179.4L731.9,547.9z"
              stroke="black" stroke-width="25"/>
        <path d="M238.3,219.6h-2.2c-40.6-1-71.5-33.2-71.9-74.7c-0.1-7.8-0.1-15.7,0-23.5V103c0-7.5,0-15,0-22.5c0.5-40.6,32.6-73.1,73.1-73.9l0,0c42,0,75,30.8,76.8,70.3c0.9,22.1,1,45.2,0.1,70.7C312.6,189.4,280.7,219.6,238.3,219.6z M238.7,24.8c-31.8,0.6-56.1,25.2-56.4,55.9c-0.1,7.4-0.1,14.8,0,22.2v18.4c0,7.8,0,15.6,0,23.3c0.3,31.6,23.6,56,54.2,56.7l1.7,9.1v-9.1c32.4,0,56.6-22.9,57.8-54.3c0.9-25,0.8-47.7-0.1-69.3C294.6,48,269.5,24.8,238.7,24.8z"
              stroke="black" stroke-width="25"/>
        <path d="M692.5,219.6c-3,0-6-0.1-9.1-0.4c-34.1-3.4-62.4-32.7-64.4-66.8c-1.7-27.4-1.6-54.4,0.1-80c2.5-36.9,35.3-65.7,74.7-65.7h3c38.2,1.4,70.3,33.1,71.7,70.6c0.3,8.3,0.2,16.6,0.1,25v2.8h0.7l0.5,9.1c-0.4,5.1-0.6,10.2-0.8,15.4c-0.4,11.9-0.9,24.2-3.9,36.2C757,198.5,728.5,219.6,692.5,219.6z M693.8,24.8c-29.9,0-54.8,21.4-56.7,48.8c-1.7,24.9-1.7,51-0.1,77.7c1.5,25.4,22.6,47.2,48.1,49.8c30.7,3,55.8-13.2,62.3-39.6c2.5-10.2,3-21,3.4-32.5c0.1-3.3,0.2-6.5,0.4-9.7l-0.9-5.8l0.1-11.2c0.1-8.1,0.1-16.2-0.1-24.2c-1-27.7-25.8-52-54.3-53L693.8,24.8z"
              stroke="black" stroke-width="25"/>
        <g stroke="black" stroke-width="18">
			<path d="M441.6,520.1H333V410.2h108.6V520.1z M351.2,502h72.3v-73.6h-72.3V502z"/>
            <path d="M274.2,663.6H165.5v-110h108.7V663.6z M183.6,645.5H256v-73.7h-72.4V645.5z"/>
            <path d="M442,663.6H332.7V553.8H442V663.6z M350.8,645.5h73.1v-73.6h-73.1V645.5z"/>
            <path d="M274.5,806.8H165.2V697.2h109.3V806.8z M183.3,788.7h73v-73.4h-73V788.7z"/>
            <path d="M442,806.8H333V696.9H442V806.8z M351.1,788.7h72.8v-73.6h-72.8V788.7z"/>
            <path d="M500.1,522.5V410.7h110.1v23.7c0,14.4,0.1,28.5-0.2,42.6c-0.1,6.3-4.8,12.3-9,15.2c-3.1,2.2-6.2,4.5-9.4,6.8c-9.4,7-19.2,14.4-30.7,18c-11.5,3.6-23.8,3.9-35.7,4.2c-5,0.1-10.2,0.1-15.4,0.6L500.1,522.5z M518.2,428.8v74.4c2.3-0.1,4.4-0.1,6.6-0.1c11.1-0.3,21.6-0.5,30.6-3.3c8.6-2.8,16.7-8.8,25.2-15.2c3.3-2.5,6.6-4.9,9.9-7.3c1.5-14.7,1.5-28.6,1.5-42.8v-5.6L518.2,428.8L518.2,428.8z"/>
		</g>
        <path d="M728.5,784.7c-5.3,0-10.7-1.1-15.9-3.3c-18.5-7.8-28.6-27.1-24.4-46.7c4.1-20,21.9-32.4,44.7-30c1.5-0.4,3-0.8,4.6-1.2c4.2-1,8.2-2,11.5-3.6c24.1-11.9,48.1-24,72.1-36.2l20.9-10.6c6.6-3.3,12.5-5,18.2-5c6.5,0,15.9,2.3,23.6,13.1c4.9,7,6.6,15.1,4.7,22.9c-2.1,8.8-8.5,16.3-18,21.2c-14.7,7.5-29.3,14.9-44,22.3c-17.2,8.6-34.5,17.3-51.5,26.2c-3.8,2-7.7,5.6-10.4,9.6C755.5,777.2,742.6,784.7,728.5,784.7z M727.5,722.5c-11.4,0-19.4,6-21.5,15.9c-2.4,11.2,3.1,21.8,13.7,26.3c11,4.6,21.9,0.3,29.7-11.4c4.4-6.5,10.6-12.2,17.1-15.6c17.2-8.9,34.5-17.6,51.8-26.3c14.7-7.4,29.2-14.7,43.8-22.3c4.7-2.5,7.8-5.7,8.7-9.3c0.7-2.7,0-5.4-1.9-8.1c-3.4-4.8-6.5-5.4-8.8-5.4c-2.8,0-6.1,1-10.1,3l-20.9,10.6c-24.1,12.1-48.1,24.3-72.3,36.3c-5,2.5-10.2,3.7-15.1,4.9c-1.9,0.4-3.8,0.9-5.7,1.5l-1.9,0.5l-1.9-0.2C730.7,722.7,729.1,722.5,727.5,722.5z"
              stroke="black" stroke-width="20"/>
	</g>
</svg>